<mxfile host="app.diagrams.net" modified="2024-02-21T12:23:40.606Z" agent="Mozilla/5.0 (X11; Linux x86_64) AppleWebKit/537.36 (KHTML, like Gecko) Chrome/121.0.0.0 Safari/537.36" etag="m2khVy9j82F8Rh_BSYDl" version="23.1.5" type="github">
  <diagram name="Page-1" id="9c096ad6-e400-ecc8-3e38-643d2caac077">
    <mxGraphModel dx="3709.5" dy="993" grid="1" gridSize="10" guides="1" tooltips="1" connect="1" arrows="1" fold="1" page="1" pageScale="1.5" pageWidth="1169" pageHeight="826" background="none" math="0" shadow="0">
      <root>
        <mxCell id="0" style=";html=1;" />
        <mxCell id="1" style=";html=1;" parent="0" />
        <mxCell id="0rh5QmkZm5LMD6H1QTrW-1" value="&lt;font face=&quot;Courier New&quot; style=&quot;font-size: 27px;&quot;&gt;&lt;b style=&quot;&quot;&gt;Data Science&lt;/b&gt;&lt;/font&gt;" style="rounded=1;whiteSpace=wrap;html=1;labelBackgroundColor=none;container=0;fillColor=#f5f5f5;gradientColor=#b3b3b3;strokeColor=#666666;" vertex="1" parent="1">
          <mxGeometry x="190" y="360" width="360" height="180" as="geometry" />
        </mxCell>
        <mxCell id="0rh5QmkZm5LMD6H1QTrW-20" style="edgeStyle=orthogonalEdgeStyle;rounded=0;orthogonalLoop=1;jettySize=auto;html=1;exitX=0.5;exitY=0;exitDx=0;exitDy=0;curved=1;fillColor=#f5f5f5;gradientColor=#b3b3b3;strokeColor=#666666;" edge="1" parent="1" source="0rh5QmkZm5LMD6H1QTrW-2">
          <mxGeometry relative="1" as="geometry">
            <mxPoint x="370" y="540" as="targetPoint" />
          </mxGeometry>
        </mxCell>
        <mxCell id="0rh5QmkZm5LMD6H1QTrW-2" value="&lt;font style=&quot;font-size: 15px;&quot;&gt;&lt;b&gt;Mathematics and Statistics&lt;/b&gt;&lt;/font&gt;" style="rounded=1;whiteSpace=wrap;html=1;labelBackgroundColor=none;container=0;fillColor=#f5f5f5;gradientColor=#b3b3b3;strokeColor=#666666;" vertex="1" parent="1">
          <mxGeometry x="400" y="730" width="190" height="110" as="geometry" />
        </mxCell>
        <mxCell id="0rh5QmkZm5LMD6H1QTrW-24" style="edgeStyle=orthogonalEdgeStyle;rounded=0;orthogonalLoop=1;jettySize=auto;html=1;exitX=0.5;exitY=0;exitDx=0;exitDy=0;entryX=0.5;entryY=1;entryDx=0;entryDy=0;curved=1;fillColor=#f5f5f5;gradientColor=#b3b3b3;strokeColor=#666666;" edge="1" parent="1" source="0rh5QmkZm5LMD6H1QTrW-3" target="0rh5QmkZm5LMD6H1QTrW-1">
          <mxGeometry relative="1" as="geometry" />
        </mxCell>
        <mxCell id="0rh5QmkZm5LMD6H1QTrW-3" value="&lt;font style=&quot;font-size: 15px;&quot;&gt;&lt;b&gt;Programing Languages&lt;/b&gt;&lt;/font&gt;" style="rounded=1;whiteSpace=wrap;html=1;labelBackgroundColor=none;spacingTop=0;spacingLeft=2;container=0;fillColor=#f5f5f5;gradientColor=#b3b3b3;strokeColor=#666666;" vertex="1" parent="1">
          <mxGeometry x="1070" y="730" width="170" height="110" as="geometry" />
        </mxCell>
        <mxCell id="0rh5QmkZm5LMD6H1QTrW-22" style="edgeStyle=orthogonalEdgeStyle;rounded=0;orthogonalLoop=1;jettySize=auto;html=1;exitX=0.5;exitY=0;exitDx=0;exitDy=0;entryX=0.5;entryY=1;entryDx=0;entryDy=0;curved=1;fillColor=#f5f5f5;gradientColor=#b3b3b3;strokeColor=#666666;" edge="1" parent="1" source="0rh5QmkZm5LMD6H1QTrW-4" target="0rh5QmkZm5LMD6H1QTrW-1">
          <mxGeometry relative="1" as="geometry" />
        </mxCell>
        <mxCell id="0rh5QmkZm5LMD6H1QTrW-4" value="&lt;font style=&quot;font-size: 15px;&quot;&gt;&lt;b&gt;Data Manipulation and Analysis&lt;/b&gt;&lt;/font&gt;" style="rounded=1;whiteSpace=wrap;html=1;labelBackgroundColor=none;spacingLeft=10;container=0;fillColor=#f5f5f5;gradientColor=#b3b3b3;strokeColor=#666666;" vertex="1" parent="1">
          <mxGeometry x="640" y="730" width="170" height="110" as="geometry" />
        </mxCell>
        <mxCell id="0rh5QmkZm5LMD6H1QTrW-19" style="edgeStyle=orthogonalEdgeStyle;rounded=0;orthogonalLoop=1;jettySize=auto;html=1;exitX=0.5;exitY=0;exitDx=0;exitDy=0;entryX=0.5;entryY=1;entryDx=0;entryDy=0;curved=1;fillColor=#f5f5f5;gradientColor=#b3b3b3;strokeColor=#666666;" edge="1" parent="1" source="0rh5QmkZm5LMD6H1QTrW-5" target="0rh5QmkZm5LMD6H1QTrW-1">
          <mxGeometry relative="1" as="geometry" />
        </mxCell>
        <mxCell id="0rh5QmkZm5LMD6H1QTrW-5" value="&lt;font style=&quot;font-size: 15px;&quot;&gt;&lt;b&gt;Mechine Learning&lt;/b&gt;&lt;/font&gt;" style="rounded=1;whiteSpace=wrap;html=1;labelBackgroundColor=none;container=0;fillColor=#f5f5f5;gradientColor=#b3b3b3;strokeColor=#666666;" vertex="1" parent="1">
          <mxGeometry x="180" y="730" width="170" height="110" as="geometry" />
        </mxCell>
        <mxCell id="0rh5QmkZm5LMD6H1QTrW-18" style="edgeStyle=orthogonalEdgeStyle;rounded=0;orthogonalLoop=1;jettySize=auto;html=1;exitX=0.5;exitY=0;exitDx=0;exitDy=0;curved=1;fillColor=#f5f5f5;gradientColor=#b3b3b3;strokeColor=#666666;" edge="1" parent="1" source="0rh5QmkZm5LMD6H1QTrW-6">
          <mxGeometry relative="1" as="geometry">
            <mxPoint x="370" y="540" as="targetPoint" />
          </mxGeometry>
        </mxCell>
        <mxCell id="0rh5QmkZm5LMD6H1QTrW-6" value="&lt;font style=&quot;font-size: 15px;&quot;&gt;&lt;b&gt;Data Visualization&lt;/b&gt;&lt;/font&gt;" style="rounded=1;whiteSpace=wrap;html=1;labelBackgroundColor=none;container=0;fillColor=#f5f5f5;gradientColor=#b3b3b3;strokeColor=#666666;" vertex="1" parent="1">
          <mxGeometry x="-40" y="730" width="170" height="110" as="geometry" />
        </mxCell>
        <mxCell id="0rh5QmkZm5LMD6H1QTrW-17" style="edgeStyle=orthogonalEdgeStyle;rounded=0;orthogonalLoop=1;jettySize=auto;html=1;exitX=0.5;exitY=0;exitDx=0;exitDy=0;curved=1;fillColor=#f5f5f5;gradientColor=#b3b3b3;strokeColor=#666666;" edge="1" parent="1" source="0rh5QmkZm5LMD6H1QTrW-7">
          <mxGeometry relative="1" as="geometry">
            <mxPoint x="370" y="540" as="targetPoint" />
          </mxGeometry>
        </mxCell>
        <mxCell id="0rh5QmkZm5LMD6H1QTrW-7" value="Data Base" style="rounded=1;whiteSpace=wrap;html=1;labelBackgroundColor=none;fontSize=15;fontStyle=1;container=0;fillColor=#f5f5f5;gradientColor=#b3b3b3;strokeColor=#666666;" vertex="1" parent="1">
          <mxGeometry x="-260" y="730" width="170" height="110" as="geometry" />
        </mxCell>
        <mxCell id="0rh5QmkZm5LMD6H1QTrW-11" style="edgeStyle=orthogonalEdgeStyle;rounded=0;orthogonalLoop=1;jettySize=auto;html=1;exitX=0.5;exitY=0;exitDx=0;exitDy=0;curved=1;fillColor=#f5f5f5;gradientColor=#b3b3b3;strokeColor=#666666;" edge="1" parent="1" source="0rh5QmkZm5LMD6H1QTrW-8" target="0rh5QmkZm5LMD6H1QTrW-1">
          <mxGeometry relative="1" as="geometry" />
        </mxCell>
        <mxCell id="0rh5QmkZm5LMD6H1QTrW-8" value="Domain Knowledge" style="rounded=1;whiteSpace=wrap;html=1;labelBackgroundColor=none;fontSize=15;fontStyle=1;horizontal=1;container=0;fillColor=#f5f5f5;gradientColor=#b3b3b3;strokeColor=#666666;" vertex="1" parent="1">
          <mxGeometry x="-490" y="730" width="180" height="110" as="geometry" />
        </mxCell>
        <mxCell id="0rh5QmkZm5LMD6H1QTrW-23" style="edgeStyle=orthogonalEdgeStyle;rounded=0;orthogonalLoop=1;jettySize=auto;html=1;exitX=0.5;exitY=0;exitDx=0;exitDy=0;curved=1;fillColor=#f5f5f5;gradientColor=#b3b3b3;strokeColor=#666666;" edge="1" parent="1" source="0rh5QmkZm5LMD6H1QTrW-9">
          <mxGeometry relative="1" as="geometry">
            <mxPoint x="370" y="540" as="targetPoint" />
          </mxGeometry>
        </mxCell>
        <mxCell id="0rh5QmkZm5LMD6H1QTrW-9" value="Big Data" style="rounded=1;whiteSpace=wrap;html=1;labelBackgroundColor=none;fontSize=15;fontStyle=1;container=0;fillColor=#f5f5f5;gradientColor=#b3b3b3;strokeColor=#666666;" vertex="1" parent="1">
          <mxGeometry x="860" y="730" width="160" height="110" as="geometry" />
        </mxCell>
      </root>
    </mxGraphModel>
  </diagram>
</mxfile>
